<svg id="coder" xmlns="http://www.w3.org/2000/svg" viewBox="0 0 779.9 550.3">
  <style>
    .sa1{fill:#072050}.sa2{fill:#747282}.sa3{fill:#2d2d3a}.sa4{fill:#fff}.sa5{fill:#a29fb0}.sa6{fill:#6e89c4}.sa7{fill:#ea5444}.sa8{fill:#ffc543}.sa9{fill:#a2cc3b}.sa10{fill:#313d6e}.sa11{fill:#678c6e}.sa13{fill:#002245}.sa14{fill:#fcbba4}.sa15{fill:#ffc7b0}.sa16{fill:#081344}.sa18{fill:#716f82}.sa19{fill:#b1aec1}.sa21{fill:#ddd}.sa23{fill:#1f3468}.sa29{fill:#7f3954}.sa31{fill:#df7d54}.sa32{fill:none;stroke:#081344;stroke-width:1.4933;stroke-linecap:round;stroke-miterlimit:10}.sa33{fill:#1c1c2d}.sa34{fill:#a0523a}.sa35{fill:#25253a}.sa36{fill:#9f293b}.sa37{fill:#f14747}.sa40{opacity:.55;fill:#cdd6f9}.sa42{opacity:.79;fill:#ce2d29}.sa43{fill:#6075b0}.sa51{fill:#709b2c}
  </style>
  <path fill="none" stroke="#716f82" stroke-width="7" stroke-miterlimit="10" d="M0 534.4h779.9"/>
  <path transform="rotate(-180 145.944 202.453)" class="sa1" d="M112.9 131.3H179v142.2h-66.1z"/>
  <path class="sa2" d="M39.4 223.7h212V86.8c0-4.8-3.9-8.7-8.7-8.7H48.1c-4.8 0-8.7 3.9-8.7 8.7v136.9z"/>
  <path class="sa2" d="M59.8 244.9h175.4c10.1 0 18.3-8.2 18.3-18.3v-7h-212v7c0 10.1 8.2 18.3 18.3 18.3z"/>
  <path class="sa3" d="M258.9 86.7v136.9l-52-.8-54.5-.9-17.2-.3-55-.9-33.3-.5V86.7c0-4.8 3.9-8.7 8.7-8.7h194.7c4.7.1 8.6 4 8.6 8.7z"/>
  <path class="sa4" d="M54.8 90.6v120.8c0 .4.4.8.8.8h194.6c.4 0 .8-.4.8-.8V90.6c0-.4-.4-.8-.8-.8H55.6c-.5 0-.8.4-.8.8z"/>
  <path class="sa5" d="M65.2 244.9h175.4c10.1 0 18.3-8.2 18.3-18.3v-7h-212v7c0 10.1 8.2 18.3 18.3 18.3zM111.2 274.1h88.6c2.7 0 4.9-2.2 4.9-4.9s-2.2-4.9-4.9-4.9h-88.6c-2.7 0-4.9 2.2-4.9 4.9s2.2 4.9 4.9 4.9z"/>
  <path class="sa6" d="M241.7 111.1H67.4c-1.5 0-2.6-1.2-2.6-2.6V98.3c0-1.5 1.2-2.6 2.6-2.6h174.3c1.5 0 2.6 1.2 2.6 2.6v10.2c0 1.4-1.2 2.6-2.6 2.6z"/>
  <ellipse class="sa7" cx="75" cy="103.1" rx="3.3" ry="3.4"/>
  <ellipse class="sa8" cx="87" cy="103.1" rx="3.3" ry="3.4"/>
  <ellipse class="sa9" cx="99" cy="103.1" rx="3.3" ry="3.4"/>
  <path class="sa10" d="M124.1 138.1H65.9c-.9 0-1.6-.7-1.6-1.6v-17.8c0-.9.7-1.6 1.6-1.6h58.2c.9 0 1.6.7 1.6 1.6v17.8c0 .9-.7 1.6-1.6 1.6z"/>
  <path class="sa11" d="M195.6 164.6h-58.2c-.9 0-1.6-.7-1.6-1.6v-17.8c0-.9.7-1.6 1.6-1.6h58.2c.9 0 1.6.7 1.6 1.6V163c0 .9-.7 1.6-1.6 1.6zM242.7 138.1h-35.2c-.9 0-1.6-.7-1.6-1.6v-17.8c0-.9.7-1.6 1.6-1.6h35.2c.9 0 1.6.7 1.6 1.6v17.8c0 .9-.7 1.6-1.6 1.6z"/>
  <path class="sa7" d="M242.7 165h-35.2c-.9 0-1.6-.7-1.6-1.6v-17.8c0-.9.7-1.6 1.6-1.6h35.2c.9 0 1.6.7 1.6 1.6v17.8c0 .9-.7 1.6-1.6 1.6z"/>
  <path class="sa1" d="M136.2 134h61.4v1.5h-61.4zM136.2 128.6h61.4v1.5h-61.4zM136.2 123.3h61.4v1.5h-61.4zM136.2 117.9h61.4v1.5h-61.4z"/>
  <path class="sa7" d="M124.1 190.6H65.9c-.9 0-1.6-.7-1.6-1.6v-17.8c0-.9.7-1.6 1.6-1.6h58.2c.9 0 1.6.7 1.6 1.6V189c0 .9-.7 1.6-1.6 1.6z"/>
  <g>
    <path class="sa1" d="M136.2 186.4h61.4v1.5h-61.4zM136.2 181.1h61.4v1.5h-61.4zM136.2 175.7h61.4v1.5h-61.4zM136.2 170.4h61.4v1.5h-61.4z"/>
  </g>
  <g>
    <path class="sa1" d="M64.1 159.6h61.4v1.5H64.1zM64.1 154.2h61.4v1.5H64.1zM64.1 148.9h61.4v1.5H64.1zM64.1 143.5h61.4v1.5H64.1z"/>
  </g>
  <path opacity=".55" fill="#c5cbed" d="M218.1 78.1l-65.7 141.7H80.2l65.1-141.7z"/>
  <g>
    <path class="sa13" d="M265.7 7.5l13.6 8.4c9.8 6.1 13.3 18.7 8.1 29l-1.6 3.2c.5-.5-20.8-40.4-20.8-40.4"/>
    <path class="sa14" d="M230.4 137.4h-7c-6.4 0-11.7-5.3-11.7-11.7v-33c0-6.4 5.3-11.7 11.7-11.7h7c6.4 0 11.7 5.3 11.7 11.7v33c0 6.4-5.3 11.7-11.7 11.7z"/>
    <path class="sa13" d="M285.6 48.2c.3 2.7-12.1 7.2-12.3 10l2 5.6c-15.3-5.5-1.8 2.9-1.8 2.9-4.5 13.5-3 20.9-15.9 26.1-6.5 2.6-13.6 3.7-21 3.2-9.9-.7-18.7 2.4-25.9-1-1.5-.7-2.9-1.7-4.2-3-2.5-2.5-4.8-5.3-6.7-8.3l-2.1-3.6c-3.9-7.6-11.9-29.7-11.3-38.8 1.8-25.7 26.4-42.9 54.8-41 .7.1 1.4.1 2.2.1 15.3 1.1 28.4 9.2 36.4 21 .4.6.8 1.3 1.2 1.9 2.3 3.7 3.5 19.8 3.5 19.8.5 1.6.8 3.3 1.1 5.1z"/>
    <path class="sa15" d="M284.4 56.4l-.4 7.1-.6 11.7-1 4.1c-.1 1.8-1 11.5-1.4 13.3-3.2 16.6-14.1 20.1-31 22.2-.5.1-1 .1-1.5.1-1.8.2-3.6.2-5.5.1-1.8-.1-3.6-.3-5.3-.6-3.4-.6-6.6-1.7-9.6-3.1-7.5-3.5-13.6-9.3-17.6-16.3-3-5.3-4.8-11.4-5-17.8v-1.3-3.2l.2-3.3.6-11.5v-.1l.1-2.1.1-1.7.1-1.5v-.4c.2-2.7.7-5.2 1.5-7.7.5-1.7 1.2-3.4 1.9-5 .1-.3.2-.5.3-.7.6-1.3 1.3-2.6 2-3.9 2.8-4.8 6.7-8.9 11.2-12 .9-.6 1.8-1.3 2.8-1.8 6.6-3.9 14.3-5.9 22.5-5.5 6.8.4 11.8 2.4 17.3 5.7 3.3 2 6.3 4.4 8.9 7.3 3.7 4 6 8.7 7.8 13.8l.3.9c.5 1.7.9 3.4 1.1 5.2.3 2.4.4 5.2.2 8z"/>
    <path class="sa13" d="M270.2 21.4c8.3 22.8-13.5 20.9-14.5 31.4-.1 1.2-.5 2.9-.8 11.5l-1.7 5.4c-.5 1.7-2 2.8-3.8 2.8-2.2 0-3.9-1.8-3.9-3.9v-.1l.2-8.5-4.2 11.3c-3.1 8.1-7.7 15.5-13.6 21.7-4.9 5.1-10.6 9.5-16.9 12.8 0 0-26.6-15.8-26.6-51.9 0-2.9.2-5.9.5-9 .3-2.8.8-5.4 1.4-7.9 11-44.8 66.1-29.5 71.4-27.5 5.5 2 12.5 11.9 12.5 11.9z"/>
    <path class="sa15" d="M289.1 80.6v.6c-.1 2.5-2.2 4.4-7.5 4.3l.7-19.3c4.3 6.5 6.4 10.3 6.8 14.4z"/>
    <path class="sa13" d="M286.2 57.3h-11.8c-1.4 0-2.5-1.1-2.5-2.5s1.1-2.5 2.5-2.5h11.8c1.4 0 2.5 1.1 2.5 2.5 0 1.3-1.1 2.5-2.5 2.5z"/>
    <path class="sa16" d="M279.6 66.1c-1 0-1.8-.8-1.8-1.8v-2.6c0-1 .8-1.8 1.8-1.8s1.8.8 1.8 1.8v2.6c0 1-.8 1.8-1.8 1.8z"/>
    <path d="M227.8 92.9c-4.9 5.1-10.6 9.5-16.9 12.8 0 0-26.6-15.8-26.6-51.9 0-2.9.2-5.9.5-9 .3-2.8.8-5.4 1.4-7.9 1.2 6.9 4.3 17.3 12.2 30.1 12 19.6 25.1 24.7 29.4 25.9z" opacity=".2" fill="#081344"/>
    <path class="sa13" d="M281.5 91.4l-.4 13.5c0 11.5-13.6 16.1-23.7 15l-16.1-1.7 1.6-13.9 4.4-26.7-7.1-19.9 14.6 6.1c-1.1 15.8 10.2 28.6 26.1 27.9l.6-.3z"/>
    <path class="sa14" d="M244.5 57.1c1.6 0 2.9 1.3 2.9 3l-.1 10-.1 8.8h-4.1c-5.8-.4-10.3-5.5-10.3-11.2 0-3 1.3-5.5 3.3-7.5 1.8-1.8 4.2-2.8 6.9-2.9.3 0 .6-.1.9 0l.6-.2z"/>
    <path transform="rotate(-180 187.378 358.85)" class="sa16" d="M141.1 350.3h92.6v17.1h-92.6z"/>
    <path class="sa10" d="M109.5 509.6v6.5"/>
    <path transform="rotate(-180 537.567 360.292)" class="sa18" d="M495.2 351.8H580v17.1h-84.8z"/>
    <path class="sa18" d="M566.3 293.7h19.3v240.5h-19.3z"/>
    <path class="sa19" d="M488.9 292.2h19.3v241.9h-19.3z"/>
    <path class="sa18" d="M488.9 282.5h19.3v103.2h-19.3z"/>
    <path transform="rotate(-180 74.9 360.292)" class="sa18" d="M32.5 351.8h84.8v17.1H32.5z"/>
    <path class="sa18" d="M103.7 293.7H123v240.5h-19.3zM26.2 292.2h19.3v241.9H26.2z"/>
    <path fill="#585668" d="M383.1 132.2h63.7v137h-63.7z"/>
    <path class="sa21" d="M514.5 224.1H305.2V96.3c0-4.6 3.7-8.4 8.4-8.4h192.6c4.6 0 8.4 3.7 8.4 8.4v127.8z"/>
    <path class="sa21" d="M494.9 244.6h-174c-9.7 0-17.6-7.9-17.6-17.6v-6.8h209.3v6.8c-.1 9.7-8 17.6-17.7 17.6z"/>
    <path d="M507.3 96.3v127.8H298V96.3c0-4.6 3.7-8.3 8.4-8.3H499c4.6 0 8.3 3.7 8.3 8.3z" fill="#767684"/>
    <path class="sa23" d="M499.7 96v116.3c0 .4-.4.8-.8.8H306.4c-.4 0-.8-.4-.8-.8V96c0-.4.4-.8.8-.8h192.5c.4.1.8.4.8.8z"/>
    <path d="M507.3 220.2v6.8c0 7.1-4.2 13.2-10.2 16-2.3 1.1-4.8 1.7-7.5 1.7h-174c-9.7 0-17.6-7.9-17.6-17.6v-6.8h209.3z" fill="#aba9c4"/>
    <g id="monitor-one-code">
      <path class="sa6" d="M316.9 109.6h65v2.3h-65z"/>
      <path class="sa21" d="M410.1 109.6h30.8v2.3h-30.8z"/>
      <path class="sa8" d="M454.5 109.6h30.8v2.3h-30.8z"/>
      <path class="sa6" d="M443.6 109.6h7.3v2.3h-7.3z"/>
      <path class="sa7" d="M384.9 109.6h21.6v2.3h-21.6z"/>
      <path class="sa6" d="M316.9 167.3h65v2.3h-65z"/>
      <path class="sa21" d="M410.1 167.3h30.8v2.3h-30.8z"/>
      <path class="sa8" d="M454.5 167.3h30.8v2.3h-30.8z"/>
      <path class="sa6" d="M443.6 167.3h7.3v2.3h-7.3z"/>
      <path class="sa5" d="M384.9 167.3h21.6v2.3h-21.6z"/>
      <g>
        <path transform="rotate(-180 452.815 149.174)" class="sa6" d="M420.3 148h65v2.3h-65z"/>
        <path transform="rotate(-180 376.711 149.174)" class="sa21" d="M361.3 148h30.8v2.3h-30.8z"/>
        <path transform="rotate(-180 332.259 149.174)" class="sa8" d="M316.9 148h30.8v2.3h-30.8z"/>
        <path transform="rotate(-180 354.935 149.174)" class="sa6" d="M351.3 148h7.3v2.3h-7.3z"/>
        <path transform="rotate(-180 406.462 149.174)" class="sa5" d="M395.7 148h21.6v2.3h-21.6z"/>
      </g>
      <g>
        <path class="sa7" d="M316.9 119.2h24.4v2.3h-24.4z"/>
        <path class="sa6" d="M389.8 119.2h10.5v2.3h-10.5z"/>
        <path class="sa21" d="M434.2 119.2h51.1v2.3h-51.1z"/>
        <path class="sa6" d="M403 119.2h27.6v2.3H403zM344.3 119.2h41.9v2.3h-41.9z"/>
      </g>
      <g>
        <path class="sa6" d="M316.9 176.9h24.4v2.3h-24.4zM389.8 176.9h10.5v2.3h-10.5zM434.2 176.9h51.1v2.3h-51.1zM403 176.9h27.6v2.3H403zM344.3 176.9h41.9v2.3h-41.9z"/>
      </g>
      <g>
        <path class="sa7" d="M316.9 157.7h24.4v2.3h-24.4z"/>
        <path class="sa6" d="M389.8 157.7h10.5v2.3h-10.5z"/>
        <path class="sa21" d="M434.2 157.7h51.1v2.3h-51.1z"/>
        <path class="sa6" d="M403 157.7h27.6v2.3H403zM344.3 157.7h41.9v2.3h-41.9z"/>
      </g>
      <g>
        <path class="sa21" d="M316.9 128.8h24.4v2.3h-24.4z"/>
        <path class="sa6" d="M344.3 128.8h41.9v2.3h-41.9z"/>
      </g>
      <g>
        <path transform="rotate(-180 374.007 139.57)" class="sa21" d="M361.8 138.4h24.4v2.3h-24.4z"/>
        <path transform="rotate(-180 337.816 139.57)" class="sa6" d="M316.9 138.4h41.9v2.3h-41.9z"/>
      </g>
    </g>
    <path d="M445.3 272.7H360c-2.6 0-4.7-2.1-4.7-4.7s2.1-4.7 4.7-4.7h85.3c2.6 0 4.7 2.1 4.7 4.7.1 2.6-2 4.7-4.7 4.7z" fill="#4a4960"/>
    <path d="M602.1 293.5H333v-13.9c0-4.2 3.4-7.6 7.6-7.6h253.9c4.2 0 7.6 3.4 7.6 7.6v13.9z" fill="#e79271"/>
    <g>
      <path d="M523.7 279.6v13.9H5.6v-13.9c0-4.2 3.4-7.6 7.6-7.6H516c4.3 0 7.7 3.4 7.7 7.6z" fill="#a5483c"/>
      <path d="M373.8 272c-4.1 6.7-9 14.7-13.2 21.5H233.8l1.7-21.5h138.3z" fill="#84352f"/>
    </g>
    <g>
      <path transform="rotate(-180 695.61 450.73)" class="sa29" d="M629 367.3h133.1v166.8H629z"/>
      <path transform="rotate(-180 647.279 450.73)" fill="#6e3856" d="M581.9 367.3h130.8v166.8H581.9z"/>
      <path transform="rotate(-180 642.426 402.37)" class="sa31" d="M580.4 379.8h124.1v45.1H580.4z"/>
      <path transform="rotate(-180 642.426 455.335)" class="sa31" d="M580.4 432.8h124.1v45.1H580.4z"/>
      <path transform="rotate(-180 642.426 509.94)" class="sa31" d="M580.4 485.7h124.1v48.4H580.4z"/>
      <g>
        <path class="sa4" d="M619.9 404.8h31c1.3 0 2.4-1.1 2.4-2.4 0-1.3-1.1-2.4-2.4-2.4h-31c-1.3 0-2.4 1.1-2.4 2.4-.1 1.3 1 2.4 2.4 2.4zM618.6 457.4h31c1.3 0 2.4-1.1 2.4-2.4 0-1.3-1.1-2.4-2.4-2.4h-31c-1.3 0-2.4 1.1-2.4 2.4 0 1.3 1.1 2.4 2.4 2.4zM618.6 510h31c1.3 0 2.4-1.1 2.4-2.4 0-1.3-1.1-2.4-2.4-2.4h-31c-1.3 0-2.4 1.1-2.4 2.4 0 1.3 1.1 2.4 2.4 2.4z"/>
      </g>
    </g>
    <g>
      <path class="sa29" d="M278.3 544.4l62.2.7c3.7 0 6.7-2.9 6.8-6.6 0-2.9-1.7-5.4-4.4-6.4L312.2 521l-33.6.5-.3 22.9z"/>
      <path class="sa16" d="M341.7 546.8l-63-.2v-4.5l67.5.2c0 2.4-2 4.5-4.5 4.5z"/>
      <path class="sa32" d="M311.4 530l7.3-7.8M316.7 532.3l7.3-7.8M321.8 535.3l8.3-8.8"/>
      <path class="sa33" d="M276.2 523.9c3.6-60.7 2.6-116.8-2.1-128.1-4.8-7.1-42.6-22.3-80.4-24l17.7-38.6c49.5 2.5 84.9 21.1 97.3 42.3 5.2 9 9.8 27 7.3 88.9-1.3 32.4-2.9 57.8-2.9 57.8l-36.9 1.7z"/>
      <path class="sa34" d="M333.7 545.9l62.2.4c3.7 0 6.7-3 6.8-6.7 0-2.9-1.8-5.4-4.5-6.4l-30.7-10.9-33.6.6-.2 23z"/>
      <path class="sa16" d="M397.1 548.1h-64v-4.5h68.5c0 2.4-2 4.5-4.5 4.5z"/>
      <path class="sa32" d="M366.7 531.4l7.3-7.8M372 533.7l7.3-7.8M377.2 536.7l8.2-8.8"/>
      <path class="sa33" d="M331.4 523.9c3.6-60.7 2.6-116.8-2.1-128.1-4.8-7.1-42.6-22.3-80.4-24l17.7-38.6c49.5 2.5 84.9 21.1 97.3 42.3 5.2 9 9.8 27 7.3 88.9-1.3 32.4-2.9 57.8-2.9 57.8l-36.9 1.7z"/>
      <path class="sa33" d="M278.2 344.3c0 6.8-2.4 13-6.4 17.9-5.1 6.2-12.9 10.2-21.7 10.2h-47.2c-1.4 0-2.8-.1-4.1-.3-3.5-.5-6.7-1.6-9.6-3.3l-1.5-.9c-7.7-5-12.8-13.7-12.8-23.5l.9-15 101.7-.9.7 15.8z"/>
      <path class="sa14" d="M310.6 264.3l24.3-3.9c1.8-.3 3-2 2.7-3.7-.3-1.8-2-3-3.7-2.7l-24.3 3.9c-1.8.3-3 2-2.7 3.7.3 1.8 1.9 3 3.7 2.7zM318.4 270.9l19.5-3.1c1.8-.3 3-2 2.7-3.7-.3-1.8-2-3-3.7-2.7l-19.5 3.1c-1.8.3-3 2-2.7 3.7.2 1.8 1.9 3 3.7 2.7zM313.8 279.5l23.1-3.7c1.8-.3 3-2 2.7-3.7-.3-1.8-2-3-3.7-2.7l-23.1 3.7c-1.8.3-3 2-2.7 3.7.3 1.7 2 2.9 3.7 2.7z"/>
      <path class="sa14" d="M321.1 258.1c-.3 0-3.2 0-6.5-.1-5.6-.1-11.1 1.1-16.1 3.6l-9.6 4.7s5.5 16.3 6.3 16.4c18.5 3.3 24.8-5.1 24.8-5.1l1.1-19.5z"/>
      <path class="sa4" d="M298.6 258h8.2v26.7h-8.2z"/>
      <path class="sa33" d="M244.8 287.6c-19.4 0-37.1-11.3-45.2-28.9l-.4-.9-25.3-77.4 31.2-10.2 24.7 75.4c2.9 5.6 8.8 9.2 15.2 9.1l53.8-.5.3 32.9-53.8.5h-.5z"/>
      <g id="arm">
        <path class="sa14" d="M420.4 255.7c-2-3.6-5-6.5-8.7-8.3h-.1c-5-2.5-10.5-3.7-16.1-3.6l-10.7.2s-2.7 23.2-2.6 22.4c.3-1.5 26.1-1.1 38-.9 2.6.1 4.2-2.7 3-4.9l-2.8-4.9z"/>
        <path class="sa4" d="M378.3 242.2h10.2v27.3h-10.2z"/>
        <path class="sa35" d="M328.4 272.6c-19.4 0-37.1-11.3-45.2-28.9l-36.5-79 29.8-13.8 36.5 79c2.8 6 8.8 9.9 15.5 9.8l53.8-.5.3 32.9-53.8.5h-.4z"/>
        <path class="sa5" d="M526.3 272.8H401.8c-2.9 0-5.3-2.4-5.3-5.3s2.4-5.3 5.3-5.3h124.4c2.9 0 5.3 2.4 5.3 5.3.1 2.9-2.3 5.3-5.2 5.3z"/>
      </g>
      <path class="sa35" d="M286.9 180.2l-.6 69-.8 87.8s-1.9 2.1-7.5 5.1c-4.9 2.6-12.6 5.8-24.3 8.8-13.7 3.5-32.9 4.1-49.4 3.7-18.1-.4-32.9-2-32.9-2l.4-172.4c0-24.3 17.6-44.4 40.7-48.5 2.8-.5 5.6-.7 8.6-.7h16.6c27.2 0 49.2 22 49.2 49.2z"/>
      <g>
        <path class="sa19" d="M210.1 406.5h16.6v95.4h-16.6z"/>
        <path class="sa18" d="M210.1 411.9v20.9l16.6-6.1v-14.1c-4.1-.2-12.1-.5-16.6-.7z"/>
        <path class="sa3" d="M269.5 414.7H170c-5.1 0-9.3-4.2-9.3-9.3 0-5.1 4.2-9.3 9.3-9.3h99.5c5.1 0 9.3 4.2 9.3 9.3 0 5.2-4.2 9.3-9.3 9.3zM288.8 532.7h-10.4c0-11.7-10.1-21.2-22.5-21.2h-75.7c-12.4 0-22.5 9.5-22.5 21.2h-10.4c0-17.1 14.8-31 32.9-31h75.7c18.2-.1 32.9 13.9 32.9 31z"/>
        <path class="sa3" d="M206.2 486.9h24.3v14.9h-24.3z"/>
        <ellipse class="sa16" cx="152.1" cy="542.1" rx="8.6" ry="8.1"/>
        <path class="sa1" d="M164.5 541.4h-23.6v-2.2c0-6.1 4.9-11 11-11h1.6c6.1 0 11 4.9 11 11v2.2z"/>
        <ellipse class="sa16" cx="284.1" cy="542.1" rx="8.6" ry="8.1"/>
        <path class="sa1" d="M296.6 541.4H273v-2.2c0-6.1 4.9-11 11-11h1.6c6.1 0 11 4.9 11 11v2.2z"/>
        <path class="sa3" d="M211.9 504.7h13.8v29.4h-13.8z"/>
        <g>
          <ellipse class="sa16" cx="219.1" cy="542.1" rx="8.6" ry="8.1"/>
          <path class="sa1" d="M231.5 541.4h-23.6v-2.2c0-6.1 4.9-11 11-11h1.6c6.1 0 11 4.9 11 11v2.2z"/>
        </g>
      </g>
      <path class="sa36" d="M86.1 227.1l22.2 160.6c1.4 9.8 9.6 17.1 19.4 17.4l81.3.9-45.1-202h-57.6c-12.4 0-21.8 10.9-20.2 23.1z"/>
      <path class="sa37" d="M304.9 406H192c-9.6 0-17.5-7.9-17.5-17.5S182.4 371 192 371h112.9c9.6 0 17.5 7.9 17.5 17.5 0 9.7-7.9 17.5-17.5 17.5z"/>
      <path class="sa33" d="M198.4 175c-2.2 31.7 4 145.9 5.9 179.6-18.1-.4-32.9-2-32.9-2l.4-172.4c0-24.3 17.6-44.4 40.7-48.5 0 0-11.5 6-14.1 43.3z"/>
      <path class="sa4" d="M255 134h-50.8v-14.2l50.8 6z"/>
      <path class="sa37" d="M173 383.9l-23.6-164.7c-1.1-7.3 4.5-14.2 12.2-15.1 7.8-1 15 4.2 16.1 11.5l23.6 164.7c1.1 7.3-4.5 14.2-12.2 15.1-7.8 1.1-11.8 6.6-16.1-11.5z"/>
      <path class="sa33" d="M286.3 249.2l-.8 87.8s-1.9 2.1-7.5 5.1l-11.7-132.3c0-.1 10.7 26.7 20 39.4z"/>
    </g>
    <path d="M507 187.8l-5.8 32.5-4.1 22.7c-2.3 1.1-4.8 1.7-7.5 1.7h-55c5.2-5.4 14-14.5 23.4-24.4 14.7-15.4 31-32.9 38.3-41.8l10.7 9.3z" opacity=".32" fill="#25253a"/>
  </g>
  <g>
    <path class="sa21" d="M476.8 271.7h108.9c.6-.9 1.1-1.9 1.4-2.9l24.4-87.9c1.2-4.2-2-8.3-6.3-8.3h-95.8c-3 0-5.5 2-6.3 4.8l-26.3 94.3z"/>
    <path class="sa5" d="M606.2 177.8l-24.3 87.8c-1.1 4.1-4.9 6.9-9.1 6.9H470.6l27.2-98.3c.8-2.8 3.4-4.8 6.3-4.8h95.7c4.4 0 7.5 4.2 6.4 8.4z"/>
    <path class="sa23" d="M600.8 181.6l-19.9 71.6-4.2 15H475.4l4.2-15 20.8-74.9c.7-2.6 3.1-4.4 5.9-4.4H595c3.9 0 6.9 3.9 5.8 7.7z"/>
    <g id="monitor-two-code">
      <path fill="#eceef0" d="M541.1 183.7h-31.2l.7-2.2h31.2z"/>
      <path class="sa7" d="M569.4 183.7h-14.8l.7-2.2h14.8z"/>
      <path class="sa5" d="M590.7 183.7h-14.8l.7-2.2h14.8z"/>
      <path class="sa6" d="M574.2 183.7h-3.5l.7-2.2h3.5z"/>
      <path class="sa5" d="M552.9 183.7h-10.3l.6-2.2h10.4z"/>
      <path class="sa21" d="M519.4 221.1h14.7l.7-2.2h-14.7z"/>
      <path class="sa8" d="M498.1 221.1h14.7l.7-2.2h-14.8z"/>
      <path class="sa6" d="M514.6 221.1h3.5l.7-2.2h-3.5z"/>
      <path class="sa7" d="M518.6 193h-11.7l.7-2.2h11.7z"/>
      <path class="sa6" d="M546.9 193h-5l.7-2.2h5z"/>
      <path class="sa7" d="M587.7 193h-24.5l.7-2.2h24.5z"/>
      <path class="sa6" d="M561.5 193h-13.3l.7-2.2h13.3zM540.2 193h-20.1l.7-2.2h20.1z"/>
      <path class="sa21" d="M515.7 202.4H504l.7-2.2h11.7zM534.8 202.4h-11.7l.7-2.2h11.7z"/>
      <path class="sa6" d="M581.5 202.4h-20.1l.7-2.2h20.1z"/>
      <path class="sa6" d="M501 211.7h20.1l.7-2.2h-20.1z"/>
    </g>
    <path class="sa5" d="M582.2 253.3l-4.3 15H474.1l4.2-15z"/>
    <path class="sa40" d="M575.2 169.4l-2.1 4.5-36.2 79.3-3.7 8.2h-39.1l3.7-8.2 36.2-79.3 2.1-4.5zM460.1 95.3l-53.8 117.8h-57.6l53.8-117.8z"/>
    <g>
      <path class="sa21" d="M573.4 272.4h-72c-2.9 0-5.3-2.4-5.3-5.3s2.4-5.3 5.3-5.3h72c2.9 0 5.3 2.4 5.3 5.3s-2.3 5.3-5.3 5.3z"/>
      <path class="sa16" d="M537.3 265.4h10.3v3.1h-10.3zM526.7 265.4h7.5v3.1h-7.5z"/>
    </g>
  </g>
  <g>
    <path d="M472.1 229.6v43.1h-36v-43.1c0-1.9 1.5-3.4 3.4-3.4h29.1c2-.1 3.5 1.5 3.5 3.4z" fill="#fc4f42"/>
    <path class="sa7" d="M436.6 265.3c-.5-.3-11.5-6.7-12.5-18.1-.4-4.3 1.3-7 2.7-8.5 4-4.1 10.5-3.8 11.3-3.8l-.3 5.3c-1.3-.1-5.3.2-7.2 2.2-1 1-1.4 2.5-1.2 4.4.8 8.6 9.8 13.9 9.9 14l-2.7 4.5z"/>
    <path class="sa7" d="M455.3 272.7h-19.2v-43.1c0-1.9 1.5-3.4 3.4-3.4h1.2c.1 2.2.7 19.4 5.5 31.8 4.2 10.7 7.9 13.9 9.1 14.7z"/>
    <path class="sa42" d="M424 247.2c.9 10.2 9.9 16.5 12.1 17.8v7.7h19.2c-1.1-.8-4.9-3.9-9.1-14.7-4.8-12.4-5.4-29.6-5.5-31.8h-1.2c-1.9 0-3.4 1.5-3.4 3.4v5.4c-2.4.2-6.5.9-9.4 3.8-1.4 1.4-3 4.1-2.7 8.4zm6.5-4.8c1.4-1.4 3.8-2 5.6-2.2v18.2c-2.7-2.3-6.3-6.4-6.8-11.7-.2-1.8.2-3.3 1.2-4.3z"/>
  </g>
  <g>
    <path transform="rotate(10.035 58.38 220.38)" class="sa43" d="M56.3 191.9h4.1V249h-4.1z"/>
    <path transform="rotate(10.035 62.219 199.314)" class="sa43" d="M59 190.8h6.4V208H59z"/>
    <path fill="#794061" d="M48.7 256.1l-4.2-.3 4.8-57 2.5-3.6 1.6 4z"/>
    <path fill="#072859" d="M42.9 259l-4 .8-11-56.1 1.5-4.2 2.6 3.4z"/>
    <g>
      <path fill="#f3885e" d="M52.1 272.1H34.4l-5.8-46.9h29.3z"/>
      <path fill="#ffbe62" d="M58.7 272.1H41l-2.6-46.9h26.1z"/>
    </g>
  </g>
  <g>
    <path class="sa37" d="M605 342.6v25.8h90c5.6 0 10.4-3.6 12.1-8.6.5-1.3.7-2.8.7-4.3 0-3.5-1.4-6.8-3.8-9.1-2.3-2.3-5.6-3.8-9.1-3.8H605z"/>
    <path class="sa42" d="M625.2 359.9v8.6h69.9c5.6 0 10.4-3.6 12.1-8.6h-82z"/>
    <path class="sa36" d="M585.8 342.6v25.8h59c7.1 0 12.9-5.8 12.9-12.9 0-3.6-1.4-6.8-3.8-9.1-2.3-2.3-5.6-3.8-9.1-3.8h-59z"/>
    <path class="sa4" d="M585.8 347.1v16.5h55.6c4.6 0 8.3-3.7 8.3-8.3 0-2.3-.9-4.3-2.4-5.8s-3.6-2.4-5.8-2.4h-55.7z"/>
    <g>
      <path d="M603.3 291.4v25.8h90c7.1 0 12.9-5.8 12.9-12.9 0-3.6-1.4-6.8-3.8-9.1-2.3-2.3-5.6-3.8-9.1-3.8h-90z" fill="#fbaf3d"/>
      <path d="M623.7 300v-8.6h69.9c5.6 0 10.4 3.6 12.1 8.6h-82z" fill="#ffd72e"/>
      <path d="M585.8 291.4v25.8h59c7.1 0 12.9-5.8 12.9-12.9 0-3.6-1.4-6.8-3.8-9.1-2.3-2.3-5.6-3.8-9.1-3.8h-59z" fill="#f38154"/>
      <path class="sa4" d="M585.8 295.8v16.5h55.6c4.6 0 8.3-3.7 8.3-8.3 0-2.3-.9-4.3-2.4-5.8s-3.6-2.4-5.8-2.4h-55.7z"/>
    </g>
    <g>
      <path class="sa9" d="M598.6 317.3v25.8h90c7.1 0 12.9-5.8 12.9-12.9 0-2.2-.5-4.3-1.5-6.1-.6-1.1-1.4-2.2-2.3-3.1-2.3-2.3-5.6-3.8-9.1-3.8h-90z"/>
      <path class="sa51" d="M601 317.3v6.8h99c-.6-1.1-1.4-2.2-2.3-3.1-2.3-2.3-5.6-3.8-9.1-3.8H601zM601 343.1v-6.8h99c-.6 1.1-1.4 2.2-2.3 3.1-2.3 2.3-5.6 3.8-9.1 3.8l-87.6-.1z"/>
      <path d="M575.1 317.3v25.8h54c7.1 0 12.9-5.8 12.9-12.9 0-3.6-1.4-6.8-3.8-9.1-2.3-2.3-5.6-3.8-9.1-3.8h-54z" fill="#4c842f"/>
      <path class="sa4" d="M575.1 321.8v16.5h50.6c4.6 0 8.3-3.7 8.3-8.3 0-2.3-.9-4.3-2.4-5.8s-3.6-2.4-5.8-2.4h-50.7z"/>
    </g>
  </g>
  <g>
    <path class="sa16" d="M612.5 165.9c-4.3-4.6-3.9-11.7.8-15.8l.5-.5c4.8-4.2 12.1-3.8 16.4.8 4.3 4.6 3.9 11.7-.8 15.8l-.5.5c-4.7 4.2-12.1 3.8-16.4-.8z"/>
    <path class="sa31" d="M621.7 188.2l-11.3 9.9-32.2-34.3 11.3-9.9c7.9-6.8 19.1-7.7 27.9-3 2.2 1.2 4.2 2.7 6 4.7 4.4 4.7 6.5 10.8 6.2 16.7-.4 5.9-3 11.6-7.9 15.9z"/>
    <path class="sa8" d="M611.4 177.3l-11.3 9.9-21.9-23.4 11.3-9.9c7.9-6.8 19.1-7.7 27.9-3 1.5 3.3 2.2 6.9 2 10.4-.4 5.9-3.1 11.7-8 16z"/>
    <path class="sa5" d="M610.9 198c-3.4 3.1-13.5-2-22.6-11.4-9-9.4-13.6-19.4-10.2-22.5 2.7-2.4 9.6.3 16.8 6.1 1.9 1.6 3.9 3.3 5.7 5.3 2.2 2.3 4.1 4.6 5.8 6.9 5.1 6.9 7.1 13.2 4.5 15.6z"/>
    <path class="sa4" d="M606.5 182.3c-2.6 2.9-7.1 3.7-10.7 1.7-4.1-2.2-5.6-7.3-3.2-11.3.6-1.1 1.5-1.9 2.4-2.6 1.9 1.6 3.9 3.3 5.7 5.3 2.2 2.3 4.2 4.7 5.8 6.9z"/>
    <path fill="none" stroke="#081344" stroke-width="4.594" stroke-miterlimit="10" d="M669.7 276.9l29.4-94.8-59.5-39.6-12.4 10.6"/>
    <g>
      <ellipse class="sa16" cx="638.9" cy="143" rx="7.3" ry="7"/>
      <ellipse class="sa10" cx="638.9" cy="143" rx="3.7" ry="3.5"/>
    </g>
    <path class="sa10" d="M699.3 291.7h-75.7c0-8.3 6.7-15 15-15h45.6c8.4 0 15.1 6.7 15.1 15z"/>
    <path class="sa16" d="M639.2 272.9h13.7v4.1h-13.7z"/>
    <g>
      <ellipse class="sa16" cx="698.5" cy="183" rx="10.2" ry="9.9"/>
      <ellipse class="sa10" cx="698.5" cy="183" rx="5.1" ry="4.9"/>
    </g>
  </g>
  <g>
    <path d="M764.2 297.3c-11.1 15.1-33.4 17.6-33.4 17.6s-4.3-22 6.8-37.1c11.1-15.1 33.4-17.6 33.4-17.6s4.3 22-6.8 37.1z" fill="#517f38"/>
    <path d="M717.6 288.3c10.2 10 9.6 27.1 9.6 27.1s-17 .8-27.2-9.2-9.6-27.1-9.6-27.1 17.1-.9 27.2 9.2z" fill="#3b6837"/>
    <path d="M742.8 280.7c2.1 18.6-12.6 35.6-12.6 35.6s-18-13.3-20.1-31.9c-2.1-18.6 12.6-35.6 12.6-35.6s18.1 13.3 20.1 31.9z" fill="#65b15b"/>
    <g>
      <path fill="#62324a" d="M741.5 367.7h-38.7l-12.6-56.3h63.9z"/>
      <path class="sa34" d="M756 367.7h-38.6l-5.7-56.3h57z"/>
    </g>
  </g>
</svg>